<svg width="262.908740234375px" height="336.8375px" xmlns="http://www.w3.org/2000/svg" viewBox="118.5456298828125 -93.41874999999999 262.908740234375 336.8375" style="background: rgba(0, 0, 0, 0);" preserveAspectRatio="xMidYMid"><defs><linearGradient id="editing-outline-gradient" x1="-0.41354545764260087" x2="1.4135454576426008" y1="0.09326335692419985" y2="0.9067366430758002"><stop offset="0" stop-color="#ee4208"></stop><stop offset="1" stop-color="#4139ff"></stop></linearGradient><filter id="editing-outline" x="-100%" y="-100%" width="300%" height="300%"><feMorphology in="SourceGraphic" operator="dilate" radius="6" result="outline"></feMorphology><feComposite operator="out" in="outline" in2="SourceAlpha"></feComposite></filter></defs><g filter="url(#editing-outline)"><g transform="translate(164.59530782699585, 143)"><path d="M20.40 0L-2.60 0L33.60-132L75.40-132L84.60-56.60L121.80-132L156.80-132L160.40-33.20L160.40-33.20Q161.20-13.60 170.80-7.60L170.80-7.60L170.80-7.60Q168.60-3.60 162.20 0.20L162.20 0.20L162.20 0.20Q155.80 4 147.30 4L147.30 4L147.30 4Q138.80 4 133.80 1.60L133.80 1.60L133.80 1.60Q128.80-0.80 126-4.80L126-4.80L126-4.80Q121-12 121-25.80L121-25.80L121-87.60L81.60 0L56.80 0L42.80-89.80L20.40 0Z" fill="url(#editing-outline-gradient)"></path></g></g><style>text {
  font-size: 64px;
  font-family: Arial Black;
  dominant-baseline: central;
  text-anchor: middle;
}</style></svg>